<svg xmlns="http://www.w3.org/2000/svg" aria-hidden="true">
  <defs>
    <symbol id="icon-antenna" viewBox="0 0 60 64">
      <path
        d="M59.4048 44.1952L42.5184 27.1851L44.3925 17.9541C44.8761 18.1429 45.3903 18.2416 45.9093 18.2453H45.9221C48.3067 18.2735 50.2625 16.3633 50.2908 13.9788C50.3191 11.5943 48.4088 9.6384 46.0243 9.61013C43.6397 9.582 41.6839 11.4921 41.6556 13.8767C41.6496 14.3869 41.734 14.8941 41.9051 15.3749L31.9851 16.5856L15.8037 0.32C15.6052 0.117467 15.3343 0.00226667 15.0507 0C14.7707 0.00146667 14.5025 0.112933 14.304 0.3104L11.2789 3.3184C10.8625 3.73493 10.8625 4.41013 11.2789 4.82667L12.9067 6.47787C6.60053 18.0737 8.6488 32.4335 17.9456 41.8037C18.0309 41.8853 18.1299 41.9513 18.2379 41.9989C18.1707 42.3599 18.1356 42.7261 18.1333 43.0933V55.4667H5.33333C2.38933 55.4701 0.00346667 57.856 0 60.8V62.9333C0 63.5224 0.4776 64 1.06667 64H50.1333C50.7224 64 51.2 63.5224 51.2 62.9333V60.8C51.1965 57.856 48.8107 55.4701 45.8667 55.4667H33.0667V49.9829C35.0719 50.4035 37.1149 50.6179 39.1637 50.6229C44.08 50.6176 48.918 49.392 53.2437 47.056L54.88 48.7019C55.0785 48.9044 55.3495 49.0196 55.6331 49.0219C55.9131 49.0204 56.1812 48.9089 56.3797 48.7115L59.4048 45.7035C59.8212 45.2869 59.8212 44.6117 59.4048 44.1952ZM44.4181 12.4661C45.2535 11.6352 46.6043 11.6389 47.4351 12.4743C48.266 13.3096 48.2623 14.6604 47.4269 15.4912C47.0271 15.8889 46.486 16.1121 45.922 16.112H45.9156C44.7375 16.1059 43.7872 15.1459 43.7933 13.9676C43.7963 13.4036 44.0224 12.8639 44.4223 12.4661H44.4181ZM41.9072 19.4752L40.7104 25.3664L38.3595 23.0016L41.9072 19.4752ZM40.6955 17.6715L36.8555 21.4891L33.8848 18.5024L40.6955 17.6715ZM45.8667 57.6C47.634 57.6 49.0667 59.0327 49.0667 60.8V61.8667H2.13333V60.8C2.13333 59.0327 3.566 57.6 5.33333 57.6H45.8667ZM30.9333 53.3333V55.4667H20.2667V53.3333H30.9333ZM20.2667 51.2V43.0933C20.2667 40.5056 22.6592 38.4 25.6 38.4C28.5408 38.4 30.9333 40.5056 30.9333 43.0933V51.2H20.2667ZM33.0667 47.808V43.0933C33.0667 39.3291 29.7173 36.2667 25.6 36.2667C22.9379 36.2259 20.4485 37.5809 19.0379 39.8389C10.9224 31.2913 9.09493 18.5485 14.4807 8.06467L51.6843 45.4816C45.9395 48.404 39.354 49.2268 33.0667 47.808ZM55.6448 46.4405L15.04 5.59147L13.5307 4.07893L15.04 2.57493L30.9099 18.5344C30.9173 18.5344 30.9216 18.5483 30.9291 18.5536L57.1584 44.9365L55.6448 46.4405Z"
        fill="#2e2f42"
      />
      <path
        d="M25.6096 40.5333H25.6C23.8327 40.5307 22.3979 41.9612 22.3952 43.7285C22.3925 45.4959 23.8231 46.9307 25.5904 46.9333H25.6C27.3673 46.936 28.8021 45.5055 28.8048 43.7381C28.8075 41.9708 27.3769 40.536 25.6096 40.5333ZM26.3563 44.4896C26.1555 44.6893 25.8833 44.8011 25.6 44.8C25.0109 44.7969 24.5359 44.3169 24.5389 43.7279C24.5404 43.4459 24.6535 43.176 24.8533 42.9771C25.0519 42.7796 25.32 42.6681 25.6 42.6667C26.1891 42.6697 26.6641 43.1497 26.6611 43.7388C26.6596 44.0208 26.5465 44.2907 26.3467 44.4896H26.3563Z"
        fill="#4d5ae5"
      />
    </symbol>

    <symbol id="icon-clock" viewBox="0 0 62 64">
      <path
        d="M61.2183 30.6025C61.2149 13.6978 47.5078 -0.00341734 30.6025 6.39362e-07C13.6978 0.00341861 -0.00341734 13.7109 6.39362e-07 30.6157C0.00293033 43.9316 8.61377 55.7178 21.2988 59.7681C21.4199 59.8062 21.5459 59.8257 21.6724 59.8252C21.9136 59.8247 22.1499 59.7603 22.3574 59.6377C22.6274 59.478 22.8291 59.2241 22.9238 58.9248L30.6538 34.4248C32.7671 34.4141 34.4712 32.6919 34.46 30.5791C34.4492 28.4658 32.7275 26.7617 30.6143 26.7725C30.0459 26.7749 29.4849 26.9058 28.9741 27.1553L18.7622 16.9419C18.2554 16.4526 17.4482 16.4668 16.959 16.9731C16.4814 17.4678 16.4814 18.251 16.959 18.7456L27.1655 28.9639C26.3823 30.5625 26.8301 32.4922 28.2383 33.582L20.873 56.9277C6.31738 51.5659 -1.13574 35.4199 4.22608 20.8643C9.58789 6.30859 25.7339 -1.14453 40.2896 4.21729C54.8452 9.5791 62.2983 25.7256 56.9365 40.2808C54.3169 47.3921 48.9346 53.1431 42.0122 56.2275L41.2163 52.479C41.0708 51.79 40.3936 51.3496 39.7046 51.4956C39.4873 51.542 39.2856 51.6441 39.1196 51.792L31.4458 58.6431C30.9194 59.1113 30.8726 59.9175 31.3413 60.4439C31.4937 60.6148 31.689 60.7417 31.9077 60.8115L41.7051 63.9385C42.3755 64.1538 43.0938 63.7852 43.3091 63.1143C43.3774 62.9024 43.3887 62.6768 43.3428 62.459L42.5606 58.7808C53.8892 54.0049 61.2446 42.8965 61.2183 30.6025ZM30.6094 29.3272C31.3135 29.3272 31.8848 29.8984 31.8848 30.6025C31.8848 31.3071 31.3135 31.8779 30.6094 31.8779C29.9048 31.8779 29.334 31.3071 29.334 30.6025C29.334 29.8984 29.9048 29.3272 30.6094 29.3272ZM34.8101 59.0552L39.1782 55.1587L40.3838 60.8394L34.8101 59.0552Z"
        fill="#2e2f42"
      />
      <path d="M29.334 6.37011V8.92089C29.334 9.62548 29.9048 10.1963 30.6094 10.1963C31.3135 10.1963 31.8847 9.62548 31.8847 8.92089V6.37011C31.8847 5.66601 31.3135 5.09472 30.6094 5.09472C29.9048 5.09472 29.334 5.66601 29.334 6.37011Z" fill="#4d5ae5" />
      <path d="M6.37695 29.3271C5.67236 29.3271 5.10156 29.8984 5.10156 30.6025C5.10156 31.3071 5.67236 31.8779 6.37695 31.8779H8.92773C9.63232 31.8779 10.2031 31.3071 10.2031 30.6025C10.2031 29.8984 9.63232 29.3271 8.92773 29.3271H6.37695Z" fill="#4d5ae5" />
      <path d="M54.8412 31.8779C55.5458 31.8779 56.1166 31.3071 56.1166 30.6025C56.1166 29.8984 55.5458 29.3271 54.8412 29.3271H52.2905C51.5864 29.3271 51.0151 29.8984 51.0151 30.6025C51.0151 31.3071 51.5864 31.8779 52.2905 31.8779H54.8412Z" fill="#4d5ae5" />
    </symbol>

    <symbol id="icon-diagram" viewBox="0 0 64 50">
      <path d="M29.851 22.4329H31.9833V32.0278H29.851V22.4329Z" fill="#4d5ae5" />
      <path d="M38.3799 26.6973H40.5121V32.0278H38.3799V26.6973Z" fill="#4d5ae5" />
      <path d="M21.3222 29.8956H23.4544V32.0278H21.3222V29.8956Z" fill="#4d5ae5" />
      <path d="M14.9255 28.8295H17.0577V32.0278H14.9255V28.8295Z" fill="#4d5ae5" />
      <path
        d="M3.19833 49.0856H54.3715C56.1378 49.0856 57.5699 47.6535 57.5699 45.8873V41.6228C57.5699 39.8566 56.1378 38.4245 54.3715 38.4245H53.3054V11.8379L59.3611 6.10131C60.7666 6.79418 62.4678 6.37356 63.3876 5.10392C64.308 3.83479 64.1789 2.08727 63.0826 0.96702C61.9863 -0.153227 60.2424 -0.320327 58.953 0.571394C57.6641 1.46364 57.206 3.15494 57.8681 4.57555L53.3054 8.90089V6.44124C53.3054 4.67497 51.8734 3.24291 50.1071 3.24291H7.46276C5.6965 3.24291 4.26443 4.67497 4.26443 6.44124V38.4245H3.19833C1.43206 38.4245 0 39.8566 0 41.6228V45.8873C0 47.6535 1.43206 49.0856 3.19833 49.0856ZM60.7682 2.1768C61.3569 2.1768 61.8343 2.65416 61.8343 3.24291C61.8343 3.83167 61.3569 4.30902 60.7682 4.30902C60.1794 4.30902 59.7021 3.83167 59.7021 3.24291C59.7021 2.65416 60.1794 2.1768 60.7682 2.1768ZM6.39665 6.44124C6.39665 5.85248 6.874 5.37513 7.46276 5.37513H50.1071C50.6958 5.37513 51.1732 5.85248 51.1732 6.44124V10.9186L49.041 12.9446V8.57345C49.041 7.9847 48.5636 7.50735 47.9749 7.50735H9.59498C9.00622 7.50735 8.52887 7.9847 8.52887 8.57345V35.2262C8.52887 35.8149 9.00622 36.2923 9.59498 36.2923H47.9749C48.5636 36.2923 49.041 35.8149 49.041 35.2262V15.8774L51.1732 13.8571V38.4245H6.39665V6.44124ZM15.9916 20.3006C14.5492 20.2965 13.2826 21.2574 12.899 22.6479C12.5153 24.0383 13.1093 25.513 14.3498 26.2491C15.5898 26.9852 17.1697 26.8004 18.2061 25.7973L21.912 27.6567C22.3425 27.8722 22.8646 27.7712 23.1847 27.4115L31.0624 18.549L38.8062 24.3517C39.2216 24.663 39.8016 24.6296 40.1784 24.2731L46.9088 17.8977V34.1601H10.6611V9.63956H46.9088V14.9602L39.3658 22.1034L31.5569 16.2491C31.1134 15.917 30.4892 15.9795 30.1207 16.3933L22.1348 25.3787L19.1493 23.8858C19.1712 23.7577 19.1847 23.6286 19.19 23.499C19.19 21.7327 17.7579 20.3006 15.9916 20.3006ZM17.0577 23.499C17.0577 24.0877 16.5804 24.5651 15.9916 24.5651C15.4029 24.5651 14.9255 24.0877 14.9255 23.499C14.9255 22.9102 15.4029 22.4329 15.9916 22.4329C16.5804 22.4329 17.0577 22.9102 17.0577 23.499ZM23.4544 40.5567H34.1155V41.6228C34.1155 42.2116 33.6381 42.6889 33.0494 42.6889H24.5205C23.9317 42.6889 23.4544 42.2116 23.4544 41.6228V40.5567ZM2.13222 41.6228C2.13222 41.0341 2.60957 40.5567 3.19833 40.5567H21.3222V41.6228C21.3222 43.3891 22.7542 44.8211 24.5205 44.8211H33.0494C34.8156 44.8211 36.2477 43.3891 36.2477 41.6228V40.5567H54.3715C54.9603 40.5567 55.4376 41.0341 55.4376 41.6228V45.8873C55.4376 46.476 54.9603 46.9534 54.3715 46.9534H3.19833C2.60957 46.9534 2.13222 46.476 2.13222 45.8873V41.6228Z"
        fill="#2e2f42"
      />
    </symbol>

    <symbol id="icon-astronaut" viewBox="0 0 64 57">
      <path d="M52.2669 37.2871H50.1335V39.4205H52.2669V37.2871Z" fill="#4d5ae5" />
      <path d="M52.2669 41.5539H50.1335V43.6873H52.2669V41.5539Z" fill="#4d5ae5" />
      <path d="M54.4004 39.4205L52.2669 39.4205V41.5539L54.4004 41.5539V39.4205Z" fill="#4d5ae5" />
      <path d="M50.1335 39.4205L48.0002 39.4205V41.5539L50.1335 41.5539V39.4205Z" fill="#4d5ae5" />
      <path d="M44.8001 49.0206H42.6667V51.154H44.8001V49.0206Z" fill="#4d5ae5" />
      <path d="M44.8001 53.2873H42.6667V55.4207H44.8001V53.2873Z" fill="#4d5ae5" />
      <path d="M46.9336 51.1541L44.8001 51.154V53.2873L46.9336 53.2875V51.1541Z" fill="#4d5ae5" />
      <path d="M42.6667 51.154L40.5333 51.1541V53.2875L42.6667 53.2873V51.154Z" fill="#4d5ae5" />
      <path d="M32 44.754H29.8666V46.8874H32V44.754Z" fill="#4d5ae5" />
      <path d="M32 49.0206H29.8666V51.154H32V49.0206Z" fill="#4d5ae5" />
      <path d="M34.1334 46.8872L32 46.8874V49.0206L34.1334 49.0206V46.8872Z" fill="#4d5ae5" />
      <path d="M29.8666 46.8874L27.7332 46.8872V49.0206L29.8666 49.0206V46.8874Z" fill="#4d5ae5" />
      <path d="M11.733 8.48663H9.59961V10.62H11.733V8.48663Z" fill="#4d5ae5" />
      <path d="M11.733 12.7534H9.59961V14.8868H11.733V12.7534Z" fill="#4d5ae5" />
      <path d="M13.8663 10.6201L11.733 10.62V12.7534L13.8663 12.7535V10.6201Z" fill="#4d5ae5" />
      <path d="M9.59961 10.62L7.46619 10.6201V12.7535L9.59961 12.7534V10.62Z" fill="#4d5ae5" />
      <path
        d="M49.4295 24.5616C48.8546 23.7861 48.0109 23.2869 47.053 23.1524C46.0908 23.0159 45.1414 23.2687 44.3734 23.8564L41.8699 25.7754L41.8688 25.7765L38.0734 28.6106L35.3577 27.529C40.2004 25.3562 43.585 20.5124 43.585 14.8888C43.585 7.24282 37.3396 1.02197 29.6627 1.02197C21.9858 1.02197 15.7405 7.24282 15.7405 14.8888C15.7405 17.6601 16.5692 20.2371 17.9805 22.4057L12.4529 22.3577C12.4497 22.3577 12.4465 22.3577 12.4433 22.3577C12.4262 22.3577 12.4124 22.3662 12.3964 22.3673C12.2908 22.3716 12.1873 22.3929 12.086 22.4292C12.0604 22.4388 12.0338 22.4442 12.0093 22.4558C11.9965 22.4612 11.9837 22.4622 11.9709 22.4686L5.50468 25.6611C5.50356 25.6611 5.50256 25.6611 5.50256 25.6621L1.71575 27.4831C1.67412 27.5013 1.6315 27.5258 1.58987 27.5535C0.0804746 28.5583 -0.433659 30.5317 0.393104 32.1445C0.833611 33.0021 1.5835 33.6336 2.50514 33.9226C2.86039 34.0335 3.22302 34.088 3.58353 34.088C4.16279 34.088 4.73667 33.9461 5.26243 33.6656L8.03798 32.1893L12.566 29.8512L15.2797 29.8352L4.39629 40.6663C4.39529 40.6675 4.39417 40.6675 4.39304 40.6685L1.71563 43.3351C1.08312 43.9645 0.73536 44.7996 0.73536 45.6904C0.73536 46.58 1.08312 47.4173 1.71563 48.0478C2.36526 48.6942 3.21965 49.0185 4.07404 49.0185C4.92955 49.0185 5.78281 48.6942 6.43457 48.0478L9.06287 45.4302L12.5445 42.8306L14.3462 44.6248L10.8229 48.1331C10.8219 48.1342 10.8208 48.1342 10.8196 48.1352L8.14223 50.8019C7.50972 51.4312 7.16196 52.2664 7.16196 53.1571C7.16196 54.0468 7.50972 54.884 8.14223 55.5146C8.79186 56.1609 9.64738 56.4852 10.5018 56.4852C11.3562 56.4852 12.2117 56.1609 12.8623 55.5146L19.8255 48.5812C19.8267 48.5801 19.8267 48.5791 19.8277 48.578L21.8469 46.5779L21.8394 46.5704C21.8522 46.5577 21.8703 46.5533 21.8832 46.5395L32.2151 35.2231L39.1571 36.2109C39.2072 36.2184 39.2573 36.2215 39.3075 36.2215C39.4366 36.2215 39.5613 36.1906 39.6819 36.1448C39.7171 36.132 39.748 36.1149 39.7811 36.0979C39.8195 36.0786 39.86 36.068 39.8964 36.0435L46.3231 31.7768C46.3466 31.7608 46.3593 31.7352 46.3817 31.7182C46.4073 31.6979 46.4393 31.6894 46.4627 31.6669L49.0056 29.285C50.3288 28.0453 50.5111 26.0144 49.4295 24.5616ZM4.26079 31.7829C3.91416 31.9686 3.52053 32.0058 3.14402 31.8864C2.77064 31.7702 2.46776 31.5152 2.29063 31.1707C1.9685 30.5434 2.15513 29.7797 2.71939 29.3669L5.34668 28.1029L6.24482 30.7279L4.26079 31.7829ZM11.255 28.1275L8.15848 29.7275L7.28071 27.161L11.3342 25.1598L11.255 28.1275ZM41.4539 14.8867C41.4539 16.7235 41.0155 18.4559 40.256 20.0056L31.8932 16.2072C31.8057 15.0606 31.2106 14.0568 30.3167 13.4317L33.2447 3.71101C38.0001 5.22366 41.4539 9.65998 41.4539 14.8867ZM17.876 14.8867C17.876 8.41721 23.1646 3.15313 29.6649 3.15313C30.1706 3.15313 30.6655 3.19576 31.1551 3.25763L28.291 12.765C28.2527 12.7639 28.2164 12.7533 28.1769 12.7533C26.1118 12.7533 24.4317 14.4279 24.4317 16.4867C24.4317 18.5454 26.1118 20.2201 28.1769 20.2201C29.5657 20.2201 30.7657 19.4533 31.4132 18.331L39.1381 21.8404C36.9887 24.7332 33.5486 26.6202 29.6648 26.6202C23.1646 26.6202 17.876 21.3562 17.876 14.8867ZM29.7887 16.4867C29.7887 17.3688 29.0654 18.0867 28.1769 18.0867C27.2884 18.0867 26.5651 17.3688 26.5651 16.4867C26.5651 15.6046 27.2884 14.8867 28.1769 14.8867C29.0654 14.8867 29.7887 15.6046 29.7887 16.4867ZM4.92968 46.5352C4.45717 47.0034 3.69228 47.0024 3.2209 46.5363C2.99365 46.309 2.86889 46.0094 2.86889 45.6904C2.86889 45.3725 2.99365 45.0728 3.2209 44.8478L5.14505 42.9309L6.84746 44.6259L4.92968 46.5352ZM11.3574 54.002C10.8849 54.4703 10.119 54.4714 9.6475 54.0032C9.42025 53.7759 9.29549 53.4763 9.29549 53.1573C9.29549 52.8394 9.42025 52.5396 9.6475 52.3146L11.5729 50.3967L13.2764 52.0918L11.3574 54.002ZM18.3208 47.0643C18.3196 47.0653 18.3186 47.0653 18.3175 47.0664L14.7878 50.5865L13.0843 48.8915L16.6107 45.381C16.6107 45.381 16.6107 45.381 16.6107 45.38C16.6119 45.3789 16.6129 45.3789 16.614 45.3779C16.694 45.2979 16.7441 45.2019 16.7932 45.107C16.8071 45.0793 16.8337 45.0558 16.8455 45.027C16.8786 44.9449 16.8839 44.8564 16.8967 44.7699C16.9031 44.7208 16.9245 44.675 16.9245 44.6248C16.9245 44.5533 16.8989 44.484 16.884 44.4135C16.8712 44.3495 16.8712 44.2844 16.8466 44.2226C16.8061 44.1224 16.7367 44.0339 16.6642 43.9474C16.644 43.9239 16.6365 43.894 16.6141 43.8716C16.6141 43.8716 16.6141 43.8716 16.613 43.8716C16.6119 43.8706 16.6119 43.8684 16.6109 43.8674L13.3969 40.6673C13.3628 40.6332 13.3191 40.6193 13.2807 40.5906C13.2242 40.5468 13.1698 40.5063 13.1068 40.4753C13.0461 40.4454 12.9842 40.4273 12.9202 40.4102C12.8519 40.3909 12.7858 40.3761 12.7143 40.3707C12.6492 40.3665 12.5884 40.3728 12.5234 40.3803C12.4519 40.3888 12.3848 40.3985 12.3154 40.4208C12.2482 40.4422 12.1885 40.4752 12.1267 40.5105C12.0872 40.5328 12.0424 40.5403 12.005 40.5681L8.45836 43.2156L6.6567 41.4215L11.4547 36.6491L20.1759 45.2264L18.3208 47.0643ZM31.9584 33.031C31.9275 33.0267 31.8986 33.0385 31.8677 33.0363C31.7898 33.0321 31.7152 33.0375 31.6373 33.0502C31.5766 33.0608 31.519 33.0726 31.4613 33.0928C31.3931 33.1163 31.3312 33.1483 31.2682 33.1867C31.2085 33.223 31.1541 33.2613 31.1018 33.3093C31.0762 33.3317 31.0453 33.3425 31.0218 33.368L21.6253 43.6594L12.9692 35.1461L18.6354 29.5098C19.0525 29.0938 19.0546 28.4185 18.6386 28.0004C18.4285 27.7903 18.1523 27.6868 17.876 27.6879L13.4386 27.7135L13.4941 24.4986L19.7022 24.552C22.2323 27.1397 25.7609 28.7537 29.6649 28.7537C30.5396 28.7537 31.393 28.663 32.2239 28.5083C32.3039 28.5723 32.3827 28.6374 32.4831 28.6779L37.3024 30.5979L37.9637 33.8853L31.9584 33.031ZM40.0406 33.3872L39.4145 30.2714L42.3073 28.1114L44.2007 30.6244L40.0406 33.3872ZM47.5478 27.7253L45.8721 29.2954L44.0097 26.8229L45.6726 25.5482C45.9829 25.3093 46.3745 25.2122 46.7585 25.2623C47.1446 25.3167 47.486 25.5183 47.7185 25.8309C48.1516 26.4144 48.078 27.2282 47.5478 27.7253Z"
        fill="#2e2f42"
      />
      <path
        d="M27.2041 33.3308L22.9182 29.0641C22.5033 28.6492 21.829 28.6492 21.413 29.0641L17.1282 33.3308C16.9277 33.5324 16.8146 33.8033 16.8146 34.087C16.8146 34.3708 16.9266 34.6428 17.1282 34.8433L21.413 39.11C21.621 39.3169 21.8942 39.4204 22.1662 39.4204C22.4382 39.4204 22.7112 39.3169 22.9182 39.11L27.2041 34.8433C27.4046 34.6428 27.5187 34.3708 27.5187 34.087C27.5187 33.8033 27.4056 33.5313 27.2041 33.3308ZM22.1662 36.8487L19.3927 34.087L22.1662 31.3254L24.9406 34.087L22.1662 36.8487Z"
        fill="#2e2f42"
      />
      <path d="M34.3285 6.38422L33.8132 8.45575C33.9551 8.491 37.2885 9.35926 37.2885 12.7534H39.4219C39.4218 8.71913 36.0906 6.8226 34.3285 6.38422Z" fill="#2e2f42" />
      <path d="M39.422 14.8867H37.2886V17.0201H39.422V14.8867Z" fill="#2e2f42" />
    </symbol>

    <symbol id="icon-twitter" viewBox="0 0 16 15">
      <path
        d="M12.6 0H15.054L9.694 6.142L16 14.5H11.063L7.196 9.43L2.771 14.5H0.316L6.049 7.93L0 0H5.063L8.558 4.633L12.6 0ZM11.74 13.028H13.1L4.323 1.395H2.865L11.74 13.028Z"
      />
    </symbol>

    <symbol id="icon-facebook" viewBox="0 0 8 16">
      <path
        d="M6.54 2.65667H8.00067V0.112667C7.74867 0.078 6.882 0 5.87267 0C3.76667 0 2.324 1.32467 2.324 3.75933V6H0V8.844H2.324V16H5.17333V8.84467H7.40333L7.75733 6.00067H5.17267V4.04133C5.17333 3.21933 5.39467 2.65667 6.54 2.65667Z"
      />
    </symbol>

    <symbol id="icon-linkedin" viewBox="0 0 16 16">
      <path
        d="M15.996 16L16 15.9994V10.1314C16 7.2607 15.382 5.04937 12.026 5.04937C10.4127 5.04937 9.33 5.9347 8.888 6.77404H8.84134V5.31737H5.65933V15.9994H8.97267V10.71C8.97267 9.31737 9.23667 7.9707 10.9613 7.9707C12.6607 7.9707 12.686 9.56004 12.686 10.7994V16H15.996Z"
      />
      <path d="M0.264001 5.31797H3.58134V16H0.264001V5.31797Z" />
      <path
        d="M1.92133 0C0.860667 0 0 0.860667 0 1.92133C0 2.982 0.860667 3.86067 1.92133 3.86067C2.982 3.86067 3.84267 2.982 3.84267 1.92133C3.842 0.860667 2.98133 0 1.92133 0Z"
      />
    </symbol>

    <symbol id="icon-instagram" viewBox="0 0 16 16">
      <path
        d="M15.9562 4.70404C15.9187 3.8539 15.7813 3.26944 15.5843 2.76299C15.3812 2.22541 15.0686 1.74412 14.6591 1.34401C14.259 0.937683 13.7745 0.621948 13.2432 0.421957C12.7338 0.22502 12.1524 0.0875415 11.3022 0.0500586C10.4458 0.00940124 10.1739 0 8.00156 0C5.82926 0 5.55735 0.00940124 4.70404 0.0468842C3.8539 0.0843671 3.26943 0.221967 2.76311 0.418783C2.22541 0.621948 1.74411 0.934509 1.34401 1.34401C0.937682 1.74412 0.622069 2.22858 0.421957 2.75994C0.225019 3.26944 0.0875414 3.85073 0.0500585 4.70087C0.00940123 5.55736 0 5.82926 0 8.00156C0 10.1739 0.00940123 10.4458 0.0468841 11.2991C0.084367 12.1492 0.221967 12.7337 0.418905 13.2401C0.622069 13.7777 0.937682 14.259 1.34401 14.6591C1.74411 15.0654 2.22858 15.3812 2.75994 15.5812C3.26943 15.7781 3.85072 15.9156 4.70099 15.9531C5.55418 15.9907 5.82621 16 7.9985 16C10.1708 16 10.4427 15.9907 11.296 15.9531C12.1462 15.9156 12.7306 15.7781 13.2369 15.5812C14.3122 15.1654 15.1624 14.3153 15.5781 13.2401C15.7749 12.7306 15.9125 12.1492 15.95 11.2991C15.9875 10.4458 15.9969 10.1739 15.9969 8.00156C15.9969 5.82926 15.9937 5.55736 15.9562 4.70404ZM14.5154 11.2366C14.481 12.018 14.3497 12.4399 14.2403 12.7212C13.9715 13.4183 13.4183 13.9715 12.7212 14.2403C12.4399 14.3497 12.0149 14.481 11.2366 14.5153C10.3926 14.5529 10.1395 14.5622 8.00473 14.5622C5.86992 14.5622 5.61364 14.5529 4.77278 14.5153C3.99138 14.481 3.56942 14.3497 3.28811 14.2403C2.94125 14.1121 2.62551 13.909 2.36924 13.6433C2.10356 13.3838 1.90039 13.0713 1.7722 12.7244C1.6628 12.4431 1.53155 12.018 1.49724 11.2397C1.45963 10.3958 1.45036 10.1426 1.45036 8.00779C1.45036 5.87297 1.45963 5.6167 1.49724 4.77596C1.53155 3.99455 1.6628 3.5726 1.7722 3.29129C1.90039 2.9443 2.10356 2.62869 2.37241 2.37229C2.63174 2.10661 2.9443 1.90345 3.29129 1.77537C3.57259 1.66597 3.99773 1.53472 4.77595 1.50029C5.61987 1.46281 5.87309 1.45341 8.00778 1.45341C10.1458 1.45341 10.3989 1.46281 11.2397 1.50029C12.0211 1.53472 12.4431 1.66597 12.7244 1.77537C13.0713 1.90345 13.387 2.10661 13.6433 2.37229C13.909 2.63174 14.1121 2.9443 14.2403 3.29129C14.3497 3.5726 14.481 3.99761 14.5154 4.77596C14.5529 5.61987 14.5623 5.87297 14.5623 8.00779C14.5623 10.1426 14.5529 10.3927 14.5154 11.2366Z"
      />
      <path
        d="M8.00157 3.89136C5.73245 3.89136 3.89139 5.73229 3.89139 8.00153C3.89139 10.2708 5.73245 12.1117 8.00157 12.1117C10.2708 12.1117 12.1117 10.2708 12.1117 8.00153C12.1117 5.73229 10.2708 3.89136 8.00157 3.89136ZM8.00157 10.6677C6.52948 10.6677 5.3354 9.47374 5.3354 8.00153C5.3354 6.52932 6.52948 5.33536 8.00157 5.33536C9.47378 5.33536 10.6677 6.52932 10.6677 8.00153C10.6677 9.47374 9.47378 10.6677 8.00157 10.6677Z"
      />
      <path
        d="M13.2339 3.72888C13.2339 4.25877 12.8043 4.68842 12.2743 4.68842C11.7444 4.68842 11.3147 4.25877 11.3147 3.72888C11.3147 3.19887 11.7444 2.76934 12.2743 2.76934C12.8043 2.76934 13.2339 3.19887 13.2339 3.72888Z"
      />
    </symbol>


    <symbol id="icon-send" viewBox="0 0 24 24">
      <path d="M2.01 21L23 12L2.01 3L2 10L17 12L2 14L2.01 21Z" />
    </symbol>

    <symbol id="icon-close" viewBox="0 0 8 8">
      <path d="M7.805 1.138L6.862 0.195L4 3.057L1.138 0.195L0.195 1.138L3.057 4L0.195 6.862L1.138 7.805L4 4.943L6.862 7.805L7.805 6.862L4.943 4L7.805 1.138Z" />
    </symbol>

    <symbol id="icon-person" viewBox="0 0 18 24">
      <path d="M9 12C12.3137 12 15 9.31371 15 6C15 2.68629 12.3137 0 9 0C5.68629 0 3 2.68629 3 6C3 9.31371 5.68629 12 9 12ZM9 14C4.02944 14 0 18.0294 0 23C0 23.5523 0.447715 24 1 24H17C17.5523 24 18 23.5523 18 23C18 18.0294 13.9706 14 9 14Z" />
    </symbol>

    <symbol id="icon-phone" viewBox="0 0 18 24">
      <path d="M14.95 18.05L12.4 15.5C12.05 15.15 11.5 15.05 11.05 15.25C10.55 15.45 10 15.55 9.45 15.55C6.75 15.55 4.45 13.25 4.45 10.55C4.45 10 4.55 9.45 4.75 8.95C4.95 8.5 4.85 7.95 4.5 7.6L1.95 5.05C1.45 4.55 0.6 4.65 0.25 5.25C0.1 5.5 0 5.75 0 6C0 15.95 8.05 24 18 24C18.25 24 18.5 23.9 18.75 23.75C19.35 23.4 19.45 22.55 18.95 22.05Z" />
    </symbol>

    <symbol id="icon-email" viewBox="0 0 18 24">
      <path d="M16 6H2C0.9 6 0.01 6.9 0.01 8L0 20C0 21.1 0.9 22 2 22H16C17.1 22 18 21.1 18 20V8C18 6.9 17.1 6 16 6ZM16 10L9 14.5L2 10V8L9 12.5L16 8V10Z" />
    </symbol>

    <symbol id="icon-check" viewBox="0 0 10 8">
      <path d="M8.745 0.255L3.5 5.5L1.255 3.255L0 4.51L3.5 8L10 1.51L8.745 0.255Z" />
    </symbol>
  </defs>
</svg>